<?xml version="1.0" standalone="no"?>
<!DOCTYPE svg PUBLIC "-//W3C//DTD SVG 20010904//EN"
 "http://www.w3.org/TR/2001/REC-SVG-20010904/DTD/svg10.dtd">
<svg version="1.0" xmlns="http://www.w3.org/2000/svg"
 width="1024.000000pt" height="1024.000000pt" viewBox="0 0 1024.000000 1024.000000"
 preserveAspectRatio="xMidYMid meet">

<g transform="translate(0.000000,1024.000000) scale(0.100000,-0.100000)"
fill="#000000" stroke="none">
<path d="M1782 5603 l3 -126 69 -23 c38 -13 73 -21 77 -18 5 3 9 36 9 75 l0
69 268 0 c306 0 369 -7 470 -55 228 -108 322 -377 211 -603 -60 -122 -197
-227 -329 -252 -29 -6 -110 -10 -179 -10 -120 0 -128 -1 -165 -26 -21 -15 -84
-48 -140 -75 l-101 -48 265 0 c294 -1 371 7 469 46 198 78 334 236 375 435 20
97 20 159 0 256 -50 243 -257 429 -524 472 -36 5 -226 10 -423 10 l-358 0 3
-127z"/>
<path d="M4814 5716 c-43 -19 -64 -53 -64 -101 1 -92 108 -139 179 -79 60 50
49 144 -22 177 -42 20 -52 20 -93 3z"/>
<path d="M6190 5125 l0 -605 79 0 80 0 3 258 3 257 30 54 c36 66 89 106 157
121 109 23 208 -24 252 -120 19 -41 21 -66 24 -305 l2 -260 76 0 75 0 0 271
c-1 243 -3 278 -21 337 -48 156 -209 251 -377 225 -68 -11 -123 -41 -181 -99
l-42 -41 0 256 0 256 -80 0 -80 0 0 -605z"/>
<path d="M4360 5120 l0 -601 78 3 77 3 -2 595 -2 595 -76 3 -75 3 0 -601z"/>
<path d="M1415 5405 c225 -58 404 -175 472 -308 63 -125 19 -181 -202 -258
-46 -16 -69 -28 -55 -28 32 -1 193 25 288 45 40 9 76 13 80 9 9 -9 -190 -201
-254 -245 -27 -19 -71 -47 -99 -62 -58 -32 -52 -34 53 -12 273 56 492 173 671
355 57 58 119 111 151 128 41 23 49 31 32 31 -13 0 -40 11 -60 25 -51 35 -130
35 -191 0 -24 -14 -45 -24 -46 -23 -90 136 -187 205 -374 270 -122 42 -229 66
-371 83 -174 21 -202 18 -95 -10z"/>
<path d="M3670 5360 c-79 -12 -125 -29 -186 -68 -121 -79 -185 -189 -192 -333
-9 -189 78 -337 244 -416 67 -32 88 -37 172 -41 119 -5 204 14 278 63 46 30
133 121 123 129 -2 1 -30 17 -62 35 l-58 33 -39 -36 c-50 -45 -82 -61 -152
-75 -103 -22 -210 10 -274 81 -35 39 -73 110 -74 136 0 9 77 12 351 12 l351 0
-4 88 c-3 72 -10 99 -35 154 -61 131 -173 216 -313 238 -36 5 -69 9 -75 9 -5
-1 -30 -5 -55 -9z m163 -160 c29 -11 69 -36 89 -57 34 -35 68 -97 68 -123 0
-7 -90 -10 -265 -10 -303 0 -293 -4 -232 86 33 51 117 109 166 117 65 10 124
6 174 -13z"/>
<path d="M5540 5358 c-82 -8 -136 -28 -205 -73 -71 -47 -111 -94 -149 -175
-29 -61 -31 -72 -31 -180 0 -108 2 -119 31 -180 41 -86 117 -161 213 -208 75
-37 76 -37 201 -37 125 0 126 0 201 37 76 38 169 121 169 152 0 8 -26 30 -58
50 l-59 35 -54 -52 c-63 -62 -120 -83 -214 -81 -111 3 -195 57 -244 156 -73
146 -18 314 127 385 47 23 69 28 132 27 92 0 153 -27 209 -90 21 -24 41 -44
45 -44 15 0 116 74 116 85 0 7 -21 36 -46 64 -88 97 -231 146 -384 129z"/>
<path d="M7525 5359 c-181 -26 -336 -177 -367 -357 -36 -212 93 -418 303 -483
84 -26 210 -26 291 2 162 54 275 187 296 347 39 299 -214 536 -523 491z m209
-170 c94 -44 156 -145 156 -253 0 -175 -115 -290 -291 -290 -95 0 -150 25
-214 96 -144 160 -63 413 150 469 48 13 149 2 199 -22z"/>
<path d="M8615 5359 c-67 -8 -143 -48 -188 -98 l-37 -41 0 60 0 60 -80 0 -80
0 0 -410 0 -410 80 0 80 0 0 228 c0 125 3 244 6 265 10 60 63 138 116 170 39
24 58 29 110 29 101 -1 156 -32 201 -117 21 -38 22 -56 25 -307 l3 -268 75 0
74 0 0 273 c0 295 -7 346 -54 417 -75 114 -193 167 -331 149z"/>
<path d="M4780 4930 l0 -410 80 0 80 0 0 410 0 410 -80 0 -80 0 0 -410z"/>
</g>
</svg>
